<?xml version="1.0" encoding="UTF-8"?>
<svg id="Layer_1" data-name="Layer 1" xmlns="http://www.w3.org/2000/svg" viewBox="0 0 66.55 104">
  <defs>
    <style>
      .cls-1 {
        fill: #fede54;
        stroke: #010101;
        stroke-miterlimit: 10;
        stroke-width: 4px;
      }
    </style>
  </defs>
  <path class="cls-1" d="M62.2,40.52c-2.94-2.1-5.6-1.04-7.71,1.37-2,2.29-3.71,4.83-6.29,8.24-.24-2.12-.45-3.12-.45-4.13-.06-10.55-.09-21.11-.13-31.66-.01-3.05-.19-6.22-4.27-6.23-4.25,0-4.6,3.18-4.58,6.47.04,5.81.14,11.63-.03,17.43-.05,1.59-.96,3.15-1.48,4.73-.61-1.66-1.71-3.31-1.76-4.98-.2-7.8-.12-15.6-.12-23.4,0-3.08-.22-6.26-4.18-6.36-4.17-.11-4.72,3.06-4.7,6.39.04,8.26.12,16.52,0,24.78-.02,1.25-1,2.49-1.54,3.73-.6-1.21-1.71-2.4-1.73-3.62-.16-7.34-.09-14.68-.06-22.02,0-3.17-.6-6.19-4.46-6.13-3.78.06-4.46,3.01-4.44,6.22.05,8.11.09,16.21,0,24.32-.02,1.51-.64,3.01-.98,4.51-.59-.06-1.18-.12-1.77-.17-.19-1.54-.51-3.08-.54-4.63-.08-5.05-.04-10.09-.07-15.14-.02-2.93-.47-5.82-4.18-5.91-3.83-.09-4.73,2.59-4.71,5.9.08,13.31.05,26.61.17,39.92.06,6.59,2.57,12.09,7.45,16.67,1.43,1.34,2.46,3.71,2.62,5.69.39,4.86.19,9.78.18,14.67-.01,3.24,1.6,4.81,4.77,4.82,5.81,0,11.62,0,17.43-.06,2.94-.03,4.5-1.41,4.35-4.57-.15-3.05.06-6.12-.05-9.17-.2-5.38-.71-10.8,5.8-13.3.91-.35,1.67-1.37,2.26-2.24,5.49-8.11,11.01-16.21,16.36-24.42,1.76-2.71,1.83-5.61-1.12-7.71Z"/>
</svg>