<?xml version="1.0" encoding="UTF-8"?>
<svg id="Layer_1" data-name="Layer 1" xmlns="http://www.w3.org/2000/svg" viewBox="0 0 63.78 103">
  <defs>
    <style>
      .cls-1 {
        fill: #f05580;
        stroke: #010101;
        stroke-miterlimit: 10;
        stroke-width: 3px;
      }
    </style>
  </defs>
  <path class="cls-1" d="M35.39,31.15c-3.58-.58-6.19,1.83-6.08,5.04.67,10.24,11.55,8.04,19,11.37-10.5,3.96-14.89,7.91-16.85,18.4-.6-.09-1.21-.19-1.81-.28-.1-7.49,2.49-12.52,7.75-18.05-7.09-1.85-14-3.65-20.98-5.48-3.72,6.29-8.59,7.43-14.85,3.76-1.03,20.73,8.19,18.74,12.44,31.28.28,28.56-3.14,23.87,24.96,24.23,11.27.42,4.32-16.57,6.41-23.61.09-1.83.96-4.47,2.33-5.25,11.94-6.82,13.45-18.63,14.55-30.4-2.45-10.81-18.34-8.28-26.87-11.02Z"/>
  <path class="cls-1" d="M53.26,31.09c5.99.22,2.65-9.82,3.47-13.64h-.07c-.4-5.47,2.48-16.03-5.99-15.95-3.52.24-4.77,2.57-4.79,5.76-.04,5.98.19,11.96-.1,17.92-.27,5.72,4.16,5.6,7.48,5.9Z"/>
  <path class="cls-1" d="M17.24,24.7s.06,0,.09,0c-.15,6.21-1.57,12.29,4.83,15.93,6.43-6.34,3.72-17,5.4-25.33.26-3.56-1.26-6.41-5.37-6.3-7.68.59-4.2,10.55-4.95,15.7Z"/>
  <path class="cls-1" d="M12.5,40.85c.54-7.5.54-15.07.03-22.58-.1-1.45-3.28-3.58-5.15-3.7-5.68,1.79-3.99,10.18-4.07,14.95-1.16,6.91,1.13,22.25,9.19,11.33Z"/>
  <path class="cls-1" d="M36.1,28.02c10.45,2.35,4.37-13.26,5.89-19.13.02-8.7-9.13-6.61-10.52-.09-.75,6.01-.26,12.17-.26,18.75,2.15.19,3.56.15,4.89.47Z"/>
</svg>