<?xml version="1.0" encoding="UTF-8"?>
<svg id="Layer_1" data-name="Layer 1" xmlns="http://www.w3.org/2000/svg" viewBox="0 0 50.31 103">
  <defs>
    <style>
      .cls-1 {
        fill: #80cfda;
        stroke: #010101;
        stroke-miterlimit: 10;
        stroke-width: 3px;
      }
    </style>
  </defs>
  <path class="cls-1" d="M42.62,46.29c-4.8-.8-9.63-1.44-14.45-2.09-3.69-.5-6.13,1.14-6.66,4.79-.54,3.66,1.3,5.89,5.04,6.43,3.16.46,6.31.94,9.47,1.41.14.41.28.81.42,1.22-7.89,1.2-11.95,5.58-11.77,13.59-1.78-5.97.81-10.16,4.84-14.61-3.65.21-7.3.42-11.09.63.54,4.19-.32,7.32-4.28,8.54-3.46,1.06-6.26-.92-8.24-5.61-1.44-3.41-2.76-6.87-4.13-10.31-.44,5.15-.39,10.19.66,15.01.7,3.18,2.07,7.31,4.5,8.8,6.26,3.84,5.92,9.48,6.07,15.3.07,2.5.38,5,.41,7.51.03,3.44,1.83,4.74,5.06,4.58,3.68-.19,7.36-.29,11.04-.54,8.71-.59,11.08.98,9.82-10.54-.11-1.02-.02-2.07-.13-3.09-.51-4.85-1.25-9.69,4.24-12.6.9-.48,1.61-1.86,1.84-2.94,1.31-6.17,2.84-12.34,3.51-18.59.41-3.8-2.33-6.25-6.16-6.89Z"/>
  <path class="cls-1" d="M16.53,14.91c1.23,8.56,1.22,17.44,6.12,25.09.63.98,1.64,2.24,2.62,2.39,4.49.7,9.04,1.05,14.13,1.58,1.59-10.9,3.16-21.39,4.65-31.9.63-4.45-.9-7.11-4.22-7.32-4.31-.28-4.93,2.87-5.39,6.09-1.07,7.45-2.13,14.9-3.24,22.34-.21,1.43-.62,2.83-.94,4.24-1.15-.99-1.37-1.8-1.47-2.62-1.16-9.22-2.38-18.43-3.42-27.66-.41-3.62-1.8-6.12-5.77-5.58-3.87.53-4.2,3.58-3.87,6.75.23,2.2.48,4.4.8,6.59Z"/>
  <path class="cls-1" d="M7.32,59.8s.07-.03.11-.05c.18.4.36.8.53,1.21,1.22,2.95,3.14,4.88,6.46,3.22,3.14-1.57,3.12-4.19,1.74-7.14-1.93-4.13-3.71-8.32-5.44-12.54-1.18-2.88-2.88-5.17-6.24-3.91-3.27,1.23-3.45,4-2.2,6.98,1.7,4.07,3.37,8.15,5.05,12.23Z"/>
  <path class="cls-1" d="M15.9,52.73c.87,1.69,3.07,2.69,5.38,4.58-.58-4.32-2.04-7.47-1.04-9.24,2.95-5.25,0-9.17-1.71-13.51-1.2-3.07-3.44-4.63-6.55-3.42-3.24,1.26-3.44,4.21-2.34,7.06,1.91,4.92,3.86,9.85,6.27,14.53Z"/>
</svg>